<?xml version="1.0" encoding="iso-8859-1"?>
<!-- Generator: Adobe Illustrator 19.0.0, SVG Export Plug-In . SVG Version: 6.00 Build 0)  -->
<svg version="1.1" id="Capa_1" xmlns="http://www.w3.org/2000/svg" xmlns:xlink="http://www.w3.org/1999/xlink" x="0px" y="0px"
	 viewBox="0 0 471.999 471.999" style="enable-background:new 0 0 471.999 471.999;" xml:space="preserve">
<g>
	<polygon style="fill:#F1E200;" points="424,51.999 432,3.999 408,35.999 376,43.999 392,67.999 	"/>
	<polygon style="fill:#F1E200;" points="272,3.999 273.509,13.056 277.106,10.808 	"/>
</g>
<polygon style="fill:#E8E5D1;" points="368,139.999 360,139.999 336,139.999 312,75.999 288,115.999 288,131.999 312,91.999 
	336,155.999 360,155.999 368,155.999 392,91.999 416,131.999 416,115.999 392,75.999 "/>
<g>
	<polygon style="fill:#FBF8EC;" points="312,67.999 288,75.999 288,115.999 312,75.999 336,139.999 360,139.999 368,139.999 
		392,75.999 416,115.999 416,75.999 392,67.999 376,43.999 360,43.999 328,43.999 	"/>
	<polygon style="fill:#FBF8EC;" points="328,43.999 360,43.999 328,3.999 288,3.999 277.106,10.808 296,35.999 	"/>
	<polygon style="fill:#FBF8EC;" points="64,139.999 64,115.999 88,91.999 88,155.999 104,211.999 114.667,211.999 104,163.999 
		144,131.999 256,139.999 320,139.999 328.073,134.862 312,91.999 288,131.999 288,115.999 288,75.999 312,67.999 280,51.999 
		273.509,13.056 224,43.999 104,43.999 88,59.999 48,107.999 32,131.999 40,163.999 	"/>
</g>
<polygon style="fill:#E8E5D1;" points="328.073,134.862 320,139.999 256,139.999 144,131.999 104,163.999 114.667,211.999 
	128,211.999 120,179.999 144,155.999 160,211.999 184,211.999 176,179.999 200,155.999 248,163.999 248,211.999 272,211.999 
	288,163.999 312,163.999 336,211.999 360,211.999 360,155.999 336,155.999 "/>
<polygon style="fill:#F1E200;" points="312,67.999 328,43.999 296,35.999 277.106,10.808 273.509,13.056 280,51.999 "/>
<polygon style="fill:#D0DFEA;" points="128,427.999 192,427.999 192,403.999 64,403.999 64,467.999 192,467.999 192,443.999 
	128,443.999 "/>
<path style="fill:#A0D92A;" d="M64,403.999h128c-16.4-20.48-40.16-30.8-64-30.8c-10.88,0-21.84,2.16-32,6.56
	C83.92,384.799,72.88,392.879,64,403.999z"/>
<rect y="403.999" style="fill:#AEBBC4;" width="64" height="64"/>
<g>
	<path style="fill:#84B323;" d="M96,379.759c-10.16-4.4-21.12-6.56-32-6.56c-23.84,0-47.6,10.32-64,30.8h64
		C72.88,392.879,83.92,384.799,96,379.759z"/>
	<path style="fill:#84B323;" d="M456,403.999h-80v1.131c13.778,3.568,24,15.975,24,30.869c0,14.894-10.222,27.3-24,30.869v1.131h88
		v-63.031l-0.242,0.969L456,403.999z"/>
</g>
<path style="fill:#A0D92A;" d="M336,435.999c0-14.894,10.222-27.3,24-30.869v-1.131h-80l-7.758,1.938L272,404.968v23.031v8v8v24h88
	v-1.131C346.222,463.299,336,450.893,336,435.999z"/>
<path style="fill:#D0DFEA;" d="M336,435.999c0,14.894,10.222,27.3,24,30.869v-61.737C346.222,408.699,336,421.105,336,435.999z"/>
<path style="fill:#AEBBC4;" d="M400,435.999c0-14.894-10.222-27.3-24-30.869v61.737C389.778,463.299,400,450.893,400,435.999z"/>
<g>
	<path style="fill:#F1E200;" d="M355.339,353.299c-2.026,5.064-0.838,10.849,3.019,14.706c5.325,5.325,13.959,5.325,19.284,0
		c3.857-3.857,5.044-9.642,3.019-14.706L368,321.647L355.339,353.299z"/>
	<path style="fill:#F1E200;" d="M309.703,353.299c-2.026,5.064-0.838,10.849,3.019,14.706c5.325,5.325,13.959,5.325,19.284,0
		c3.857-3.857,5.044-9.642,3.019-14.706l-12.661-31.652L309.703,353.299z"/>
	<path style="fill:#F1E200;" d="M400.976,353.299c-2.026,5.064-0.838,10.849,3.019,14.706c5.325,5.325,13.959,5.325,19.284,0
		c3.857-3.857,5.044-9.642,3.019-14.706l-12.661-31.652L400.976,353.299z"/>
</g>
<g>
	<path style="fill:#1D9942;" d="M184,323.999c0,8.836,7.164,16,16,16h64c8.836,0,16-7.164,16-16c0-8.837-7.164-16-16-16h-16h-32h-16
		C191.164,307.999,184,315.163,184,323.999z"/>
	<path style="fill:#1D9942;" d="M264,291.999c0-8.837-7.164-16-16-16h-32c-8.836,0-16,7.163-16,16c0,8.836,7.164,16,16,16h32
		C256.836,307.999,264,300.836,264,291.999z"/>
	<path style="fill:#1D9942;" d="M240.792,267.207c4.191-4.191,4.841-10.757,1.554-15.689L232,235.999l-10.346,15.519
		c-3.288,4.932-2.638,11.498,1.554,15.689C228.063,272.063,235.937,272.063,240.792,267.207z"/>
</g>
<g>
	<path style="fill:#183F5E;" d="M280,403.999l7.758-1.938l-5.508-22.063H296v-16h-24c-2.461,0-4.789,1.133-6.305,3.078
		c-1.516,1.938-2.055,4.469-1.453,6.859L272,404.968l0.242,0.969L280,403.999z"/>
	<path style="fill:#183F5E;" d="M470.305,367.078c-1.516-1.945-3.844-3.078-6.305-3.078h-24v16h13.75l-5.508,22.063l7.758,1.938
		l7.758,1.938l0.242-0.969l7.758-31.031C472.359,371.546,471.82,369.015,470.305,367.078z"/>
</g>
<polygon style="fill:#F1E200;" points="376,405.131 376,403.999 368,403.999 360,403.999 360,405.131 360,466.868 360,467.999 
	368,467.999 376,467.999 376,466.868 "/>
<polygon style="fill:#183F5E;" points="272,427.999 240,427.999 240,411.999 248,411.999 248,395.999 216,395.999 216,411.999 
	224,411.999 224,427.999 192,427.999 128,427.999 128,443.999 192,443.999 272,443.999 272,435.999 "/>
<g>
</g>
<g>
</g>
<g>
</g>
<g>
</g>
<g>
</g>
<g>
</g>
<g>
</g>
<g>
</g>
<g>
</g>
<g>
</g>
<g>
</g>
<g>
</g>
<g>
</g>
<g>
</g>
<g>
</g>
</svg>
