<?xml version="1.0"?>
<svg xmlns="http://www.w3.org/2000/svg" width="50" height="50" viewBox="0 0 50 50">
    <path style="text-indent:0;text-align:start;line-height:normal;text-transform:none;block-progression:tb;-inkscape-font-specification:Bitstream Vera Sans" d="M 15.8125 1 A 1.0001 1.0001 0 0 0 15 2 L 15 6 A 1.0001 1.0001 0 0 0 16 7 L 17 7 L 17 11 C 16.986924 11.071893 16.946812 11.169632 16.90625 11.28125 C 16.80859 11.549964 16.638226 11.947263 16.4375 12.40625 C 16.036048 13.324223 15.452404 14.544115 14.75 16 C 13.345191 18.911769 11.475289 22.701545 9.59375 26.53125 C 7.7122106 30.360955 5.8264811 34.2254 4.40625 37.40625 C 3.6961345 38.996675 3.0807201 40.409663 2.65625 41.5625 C 2.2317799 42.715337 1.96875 43.543665 1.96875 44.34375 C 1.96875 45.427121 2.2604181 46.352514 2.8125 47.0625 C 3.3645819 47.772486 4.1235495 48.228634 4.9375 48.5 C 6.5654009 49.042732 8.44775 49 10.28125 49 L 39.625 49 C 41.4585 49 43.372099 49.04273 45 48.5 C 45.81395 48.228634 46.572918 47.772486 47.125 47.0625 C 47.677082 46.352514 47.96875 45.427121 47.96875 44.34375 C 47.968968 43.54522 47.672191 42.715241 47.25 41.5625 C 46.827809 40.409759 46.237696 39.027902 45.53125 37.4375 C 44.118358 34.256696 42.246966 30.360951 40.375 26.53125 C 38.503034 22.701549 36.647705 18.911794 35.25 16 C 34.551147 14.544103 33.961947 13.324283 33.5625 12.40625 C 33.362776 11.947234 33.190954 11.550078 33.09375 11.28125 C 33.053373 11.169583 33.013103 11.071655 33 11 L 33 7 L 34 7 A 1.0001 1.0001 0 0 0 35 6 L 35 2 A 1.0001 1.0001 0 0 0 34 1 L 16 1 A 1.0001 1.0001 0 0 0 15.90625 1 A 1.0001 1.0001 0 0 0 15.8125 1 z M 17 3 L 33 3 L 33 5 L 32.1875 5 L 31.78125 5 L 18.1875 5 A 1.0001 1.0001 0 0 0 17.78125 5 L 17 5 L 17 3 z M 19 7 L 31 7 L 31 11 C 31 11.461082 31.09679 11.631445 31.21875 11.96875 C 31.340715 12.306055 31.509358 12.706264 31.71875 13.1875 C 32.137533 14.149971 32.733681 15.408756 33.4375 16.875 C 34.845138 19.807487 36.725341 23.583826 38.59375 27.40625 C 40.462159 31.228674 42.326548 35.115773 43.71875 38.25 C 44.414851 39.817113 44.979148 41.169175 45.375 42.25 C 45.770852 43.330825 45.968782 44.22578 45.96875 44.34375 C 45.96875 45.093879 45.781137 45.522392 45.53125 45.84375 C 45.281363 46.165108 44.904675 46.406741 44.34375 46.59375 C 43.221901 46.967768 41.4585 47 39.625 47 L 10.28125 47 C 8.44775 47 6.6843491 46.96777 5.5625 46.59375 C 5.0015755 46.406741 4.6248868 46.165108 4.375 45.84375 C 4.1251132 45.522392 3.96875 45.093879 3.96875 44.34375 C 3.96875 44.227335 4.1333295 43.36198 4.53125 42.28125 C 4.9291705 41.20052 5.519053 39.817091 6.21875 38.25 C 7.6181439 35.115819 9.4970394 31.22867 11.375 27.40625 C 13.252961 23.58383 15.147684 19.807512 16.5625 16.875 C 17.269908 15.408744 17.860312 14.15003 18.28125 13.1875 C 18.491719 12.706235 18.658624 12.306169 18.78125 11.96875 C 18.903876 11.631331 19 11.462858 19 11 L 19 7 z M 25.3125 20.0625 A 1.0001 1.0001 0 0 0 25.15625 20.125 C 24.047623 20.539596 22.920691 21.554616 21.75 23.0625 C 20.742463 24.360236 19.78441 26.002931 19.15625 27.9375 C 17.688824 27.418131 16.272959 27.11175 15.15625 27 A 1.0001 1.0001 0 0 0 14.125 27.59375 C 12.692491 30.877881 12.288601 35.543463 16.09375 39.96875 C 17.654889 41.783589 20.463991 42.908018 22.8125 43.125 A 1.0001 1.0001 0 0 0 22.84375 43.15625 A 1.0001 1.0001 0 0 0 23.125 43.25 C 23.125 43.25 29.908718 44.613802 33.90625 39.96875 C 35.849838 37.707864 36.659474 35.083285 36.84375 32.78125 C 37.028026 30.479215 36.649549 28.532486 35.96875 27.3125 A 1.0001 1.0001 0 0 0 35 26.8125 C 33.654103 26.947335 32.15804 27.283801 30.65625 27.90625 C 29.743568 24.79885 27.658497 21.873008 26.21875 20.375 A 1.0001 1.0001 0 0 0 25.3125 20.0625 z M 25.3125 22.46875 C 26.542107 23.940195 28.182736 26.453937 28.8125 28.8125 C 27.982566 29.300865 27.188681 29.892438 26.4375 30.59375 C 26.005651 30.996929 25.633221 31.519828 25.25 32 C 24.076476 30.614964 22.620056 29.492783 21.03125 28.71875 C 21.574369 26.977303 22.411776 25.441409 23.3125 24.28125 C 24.120483 23.240544 24.802064 22.799672 25.3125 22.46875 z M 34.46875 29 C 34.74329 29.832813 34.96664 31.089817 34.84375 32.625 C 34.687381 34.578414 34.014206 36.774951 32.40625 38.65625 C 29.692351 41.809745 25.517363 41.456484 24.34375 41.3125 C 24.28549 38.139282 25.006199 35.708898 26.21875 33.90625 C 26.688214 33.208317 27.203374 32.602012 27.78125 32.0625 C 29.773821 30.202211 32.314546 29.341556 34.46875 29 z M 15.71875 29.21875 C 16.951161 29.416327 18.421275 29.715378 19.96875 30.4375 C 21.637845 31.216375 23.159259 32.351752 24.125 33.6875 C 23.034887 35.631864 22.358784 38.048661 22.34375 40.96875 C 20.637458 40.61023 18.45206 39.654044 17.59375 38.65625 C 14.587943 35.146008 14.747508 31.905794 15.71875 29.21875 z" overflow="visible" enable-background="accumulate" font-family="Bitstream Vera Sans"/>
</svg>
