<svg height="464pt" viewBox="0 -20 464 464" width="464pt" xmlns="http://www.w3.org/2000/svg"><g fill="#834b10"><path d="m368 240c-26.507812 0-48-21.492188-48-48h96c0 26.507812-21.492188 48-48 48zm0 0"/><path d="m362.105469 129.777344c-18.746094 18.742187-49.136719 18.742187-67.882813 0l67.882813-67.882813c18.742187 18.746094 18.742187 49.136719 0 67.882813zm0 0"/><path d="m280 56c0 26.507812-21.492188 48-48 48v-96c26.507812 0 48 21.492188 48 48zm0 0"/><path d="m169.777344 61.894531c18.742187 18.746094 18.742187 49.136719 0 67.882813l-67.882813-67.882813c18.746094-18.742187 49.136719-18.742187 67.882813 0zm0 0"/><path d="m96 144c26.507812 0 48 21.492188 48 48h-96c0-26.507812 21.492188-48 48-48zm0 0"/><path d="m101.894531 254.222656c18.746094-18.742187 49.136719-18.742187 67.882813 0l-67.882813 67.882813c-18.742187-18.746094-18.742187-49.136719 0-67.882813zm0 0"/><path d="m184 328c0-26.507812 21.492188-48 48-48v96c-26.507812 0-48-21.492188-48-48zm0 0"/><path d="m294.222656 322.105469c-18.742187-18.746094-18.742187-49.136719 0-67.882813l67.882813 67.882813c-18.746094 18.742187-49.136719 18.742187-67.882813 0zm0 0"/></g><path d="m368 192c0 75.109375-60.890625 136-136 136s-136-60.890625-136-136 60.890625-136 136-136 136 60.890625 136 136zm0 0" fill="#a45e14"/><path d="m48 200c-4.417969 0-8-3.582031-8-8 0-32.078125 8.023438-63.648438 23.34375-91.832031 2.117188-3.878907 6.976562-5.308594 10.855469-3.191407 3.878906 2.117188 5.308593 6.976563 3.191406 10.855469-14.039063 25.832031-21.394531 54.765625-21.390625 84.167969 0 4.417969-3.582031 8-8 8zm0 0" fill="#c0f5f9"/><path d="m99.824219 328c-2.164063.011719-4.238281-.855469-5.753907-2.398438-21.132812-21.847656-36.800781-48.382812-45.726562-77.441406-1.289062-4.226562 1.089844-8.699218 5.316406-9.988281 4.226563-1.289063 8.699219 1.089844 9.988282 5.316406 8.191406 26.617188 22.570312 50.914063 41.953124 70.910157 2.257813 2.304687 2.910157 5.742187 1.65625 8.714843-1.257812 2.972657-4.175781 4.898438-7.402343 4.886719zm0 0" fill="#c0f5f9"/><path d="m404.558594 136c-3.339844 0-6.332032-2.082031-7.496094-5.214844-8.480469-22.867187-21.648438-43.710937-38.664062-61.183594-2.925782-3.195312-2.777344-8.144531.339843-11.15625 3.113281-3.011718 8.0625-2.996093 11.15625.035157 18.550781 19.074219 32.90625 41.820312 42.136719 66.777343.894531 2.445313.539062 5.171876-.945312 7.308594-1.488282 2.140625-3.921876 3.417969-6.527344 3.433594zm0 0" fill="#c0f5f9"/><path d="m320 38.398438c-1.335938.003906-2.652344-.332032-3.824219-.972657-25.832031-14.050781-54.769531-21.417969-84.175781-21.425781-4.417969 0-8-3.582031-8-8s3.582031-8 8-8c32.078125 0 63.648438 8.023438 91.832031 23.34375 3.246094 1.734375 4.890625 5.460938 3.984375 9.03125-.910156 3.566406-4.136718 6.054688-7.816406 6.023438zm0 0" fill="#c0f5f9"/><path d="m104 67.824219c-3.269531.015625-6.21875-1.957031-7.449219-4.984375-1.234375-3.023438-.5-6.496094 1.847657-8.769532 21.28125-20.574218 47.011718-35.980468 75.203124-45.015624 4.210938-1.34375 8.710938.984374 10.054688 5.191406 1.34375 4.210937-.980469 8.714844-5.191406 10.058594-25.816406 8.304687-49.378906 22.433593-68.863282 41.296874-1.507812 1.441407-3.515624 2.238282-5.601562 2.222657zm0 0" fill="#c0f5f9"/><path d="m320 192c0 48.601562-39.398438 88-88 88s-88-39.398438-88-88 39.398438-88 88-88 88 39.398438 88 88zm0 0" fill="#fbedbf"/><path d="m264 144-24 40h32l-64 64 8-48h-16l8-56zm0 0" fill="#f3af3e"/><path d="m0 352c23.199219 0 23.199219 32 46.351562 32 23.152344 0 23.199219-32 46.402344-32 23.199219 0 23.199219 32 46.398438 32 23.199218 0 23.199218-32 46.398437-32 23.203125 0 23.203125 32 46.402344 32s23.199219-32 46.398437-32c23.199219 0 23.199219 32 46.402344 32 23.199219 0 23.199219-32 46.398438-32 23.199218 0 23.199218 32 46.457031 32 23.253906 0 23.191406-32 46.390625-32v72h-464zm0 0" fill="#6cbae5"/><path d="m417.550781 408c-23.199219 0-23.199219-32-46.453125-32-23.257812 0-23.203125 32-46.402344 32-23.199218 0-23.199218-32-46.398437-32s-23.199219 32-46.402344 32c-23.199219 0-23.199219-32-46.398437-32-23.199219 0-23.199219 32-46.398438 32-23.203125 0-23.203125-32-46.402344-32-23.199218 0-23.199218 32-46.398437 32s-23.097656-32-46.296875-32v48h464v-48c-23.199219 0-23.199219 32-46.449219 32zm0 0" fill="#4799cf"/><path d="m408 192h16v56h-16zm0 0" fill="#6cbae5"/><path d="m408 264h16v16h-16zm0 0" fill="#6cbae5"/><path d="m408 296h16v16h-16zm0 0" fill="#6cbae5"/><path d="m352 320h16v48h-16zm0 0" fill="#6cbae5"/></svg>