<?xml version="1.0" encoding="iso-8859-1"?>
<!-- Generator: Adobe Illustrator 19.0.0, SVG Export Plug-In . SVG Version: 6.00 Build 0)  -->
<svg version="1.1" id="Layer_1" xmlns="http://www.w3.org/2000/svg" xmlns:xlink="http://www.w3.org/1999/xlink" x="0px" y="0px"
	 viewBox="0 0 504.32 504.32" style="enable-background:new 0 0 504.32 504.32;" xml:space="preserve">
<g transform="translate(1 1)">
	<path style="fill:#80D6FA;" d="M46.786,497.773c-17.067,0-25.6-8.533-34.133-17.067c-2.56-2.56-5.12-5.12-8.533-7.68V430.36
		c3.413,2.56,5.973,5.12,8.533,7.68c8.533,8.533,17.067,17.067,34.133,17.067s25.6-8.533,34.133-17.067s17.067-17.067,34.133-17.067
		s25.6,8.533,34.133,17.067c8.533,8.533,17.067,17.067,34.133,17.067c11.093,0,18.773-3.413,24.747-8.533
		c3.413-2.56,5.973-5.12,9.387-8.533c8.533-8.533,17.067-17.067,34.133-17.067s25.6,8.533,34.133,17.067
		c2.56,2.56,5.973,5.973,9.387,8.533c5.973,5.12,13.653,8.533,24.747,8.533c17.067,0,25.6-8.533,34.133-17.067
		c8.533-8.533,17.067-17.067,34.133-17.067c17.067,0,25.6,8.533,34.133,17.067c8.533,8.533,17.067,17.067,34.133,17.067
		c17.067,0,25.6-8.533,34.133-17.067c2.56-2.56,5.12-5.12,8.533-7.68v42.667c-3.413,2.56-5.973,5.12-8.533,7.68
		c-8.533,8.533-17.067,17.067-34.133,17.067c-17.067,0-25.6-8.533-34.133-17.067c-8.533-8.533-17.067-17.067-34.133-17.067
		c-17.067,0-25.6,8.533-34.133,17.067c-8.533,8.533-17.067,17.067-34.133,17.067c-17.067,0-25.6-8.533-34.133-17.067
		c-8.533-8.533-17.067-17.067-34.133-17.067s-25.6,8.533-34.133,17.067c-8.533,8.533-17.067,17.067-34.133,17.067
		s-25.6-8.533-34.133-17.067c-8.533-8.533-17.067-17.067-34.133-17.067s-25.6,8.533-34.133,17.067
		C72.386,489.24,63.853,497.773,46.786,497.773"/>
	<path style="fill:#AAB1BA;" d="M499.053,275.906h-51.2h-1.707c-2.56,17.067-6.827,34.133-13.653,49.493l1.707,0.853
		c24.747,14.507,33.28,45.227,18.773,69.973l-44.373-25.6l-1.707-0.853c-4.267,5.973-52.907,59.733-112.64,76.8
		c-3.413-2.56-5.973-5.12-9.387-8.533c-8.533-8.533-17.067-17.067-34.133-17.067s-25.6,8.533-34.133,17.067
		c-2.56,2.56-5.973,5.973-9.387,8.533c-68.267-17.067-107.52-70.827-112.64-76.8l-1.707,0.853
		c-24.747,13.653-55.467,5.973-69.973-18.773l44.373-25.6l1.707-0.853c-6.827-15.36-11.093-32.427-12.8-49.493h-1.707
		c-28.16,0-51.2-23.04-51.2-51.2h51.2h1.707c2.56-17.067,6.827-34.133,12.8-49.493l-1.707-0.853
		c-24.747-14.507-33.28-45.227-18.773-69.973l44.373,25.6l1.707,0.853c10.24-13.653,22.187-25.6,36.693-36.693l-0.853-1.707
		c-14.507-24.747-5.973-55.467,18.773-69.973l25.6,44.373l0.853,1.707c15.36-6.827,32.427-11.093,49.493-12.8V54.04
		c0-28.16,23.04-51.2,51.2-51.2v51.2v1.707c17.067,2.56,34.133,6.827,49.493,12.8l0.853-1.707
		c13.653-24.747,45.227-32.427,69.973-18.773l-25.6,44.373l-0.853,1.707c13.653,10.24,25.6,22.187,36.693,35.84l1.707-0.853
		c24.747-13.653,55.467-5.973,69.973,18.773l-44.373,25.6l-1.707,0.853c6.827,15.36,11.093,32.427,12.8,49.493h1.707
		C476.013,224.706,499.053,247.746,499.053,275.906L499.053,275.906z"/>
	<polygon style="fill:#e2e2e2;" points="311.32,241.773 225.986,344.173 243.053,275.906 191.853,275.906 277.186,156.44 
		260.12,241.773 	"/>
</g>
<path style="fill:#51565F;" d="M457.386,503.04c-18.773,0-28.16-9.387-37.547-17.92c-8.533-8.533-16.213-16.213-30.72-16.213
	c-14.507,0-23.04,7.68-30.72,16.213c-8.533,8.533-17.92,17.92-37.547,17.92s-28.16-9.387-37.547-17.92
	c-8.533-8.533-16.213-16.213-30.72-16.213s-23.04,7.68-30.72,16.213c-8.533,8.533-17.92,17.92-37.547,17.92
	s-28.16-9.387-37.547-17.92c-8.533-8.533-16.213-16.213-30.72-16.213s-23.04,7.68-30.72,16.213
	c-8.533,8.533-17.92,17.92-37.547,17.92s-28.16-9.387-37.547-17.92c-2.56-2.56-5.12-5.12-8.533-7.68
	c-1.707-1.707-1.707-4.267-0.853-5.973c1.707-1.707,4.267-1.707,5.973-0.853c3.413,2.56,5.973,5.12,8.533,8.533
	c8.533,8.533,16.213,16.213,30.72,16.213s23.04-7.68,30.72-16.213c8.533-8.533,17.92-17.92,37.547-17.92s28.16,9.387,37.547,17.92
	c8.533,8.533,16.213,16.213,30.72,16.213c14.507,0,23.04-7.68,30.72-16.213c8.533-8.533,17.92-17.92,37.547-17.92
	s28.16,9.387,37.547,17.92c8.533,8.533,16.213,16.213,30.72,16.213s23.04-7.68,30.72-16.213c8.533-8.533,17.92-17.92,37.547-17.92
	c19.627,0,28.16,9.387,37.547,17.92c8.533,8.533,16.213,16.213,30.72,16.213s23.04-7.68,30.72-16.213
	c2.56-2.56,5.973-5.973,8.533-8.533c1.707-1.707,4.267-0.853,5.973,0.853c1.707,1.707,0.853,4.267-0.853,5.973
	c-2.56,2.56-5.12,5.12-7.68,7.68C485.546,493.653,476.16,503.04,457.386,503.04z M457.386,460.373
	c-18.773,0-28.16-9.387-37.547-17.92c-8.533-8.533-16.213-16.213-30.72-16.213c-14.507,0-23.04,7.68-30.72,16.213
	c-8.533,8.533-17.92,17.92-37.547,17.92s-28.16-9.387-37.547-17.92c-8.533-8.533-16.213-16.213-30.72-16.213
	s-23.04,7.68-30.72,16.213c-8.533,8.533-17.92,17.92-37.547,17.92s-28.16-9.387-37.547-17.92
	c-8.533-8.533-16.213-16.213-30.72-16.213s-23.04,7.68-30.72,16.213c-8.533,8.533-17.92,17.92-37.547,17.92
	s-28.16-9.387-37.547-17.92c-2.56-2.56-5.12-5.12-8.533-7.68c-1.707-1.707-1.707-4.267-0.853-5.973
	c1.707-1.707,4.267-1.707,5.973-0.853c3.413,2.56,5.973,5.12,8.533,8.533c8.533,8.533,16.213,16.213,30.72,16.213
	s23.04-7.68,30.72-16.213c8.533-8.533,17.92-17.92,37.547-17.92s28.16,9.387,37.547,17.92c8.533,8.533,16.213,16.213,30.72,16.213
	c14.507,0,23.04-7.68,30.72-16.213c8.533-8.533,17.92-17.92,37.547-17.92s28.16,9.387,37.547,17.92
	c8.533,8.533,16.213,16.213,30.72,16.213s23.04-7.68,30.72-16.213c8.533-8.533,17.92-17.92,37.547-17.92
	c19.627,0,28.16,9.387,37.547,17.92c8.533,8.533,16.213,16.213,30.72,16.213s23.04-7.68,30.72-16.213
	c2.56-2.56,5.973-5.973,8.533-8.533c1.707-1.707,4.267-0.853,5.973,0.853c1.707,1.707,0.853,4.267-0.853,5.973
	c-2.56,2.56-5.12,5.12-7.68,7.68C485.546,450.986,476.16,460.373,457.386,460.373z M453.973,401.493c-0.853,0-1.707,0-2.56-0.853
	l-42.667-24.747c-4.267,5.12-8.533,10.24-12.8,14.507c-1.707,1.707-4.267,1.707-5.973,0c-1.707-1.707-1.707-4.267,0-5.973
	c5.12-5.12,10.24-11.093,14.507-17.067c1.707-1.707,3.413-2.56,5.12-0.853l41.813,23.893c4.267-10.24,5.973-21.333,2.56-31.573
	c-3.413-11.947-11.093-22.187-22.187-28.16l-1.707-0.853c-1.707-0.853-2.56-3.413-1.707-5.12c5.973-15.36,11.093-31.573,12.8-48.64
	c0-1.707,1.707-3.413,4.267-3.413h48.64c-0.853-11.093-5.973-21.333-13.653-29.013c-8.533-8.533-20.48-13.653-33.28-13.653l0,0
	h-1.707c-2.56,0-4.267-1.707-4.267-3.413c-2.56-17.067-6.827-33.28-12.8-48.64c-0.853-1.707,0-4.267,1.707-5.12l41.813-23.893
	c-5.973-9.387-15.36-15.36-26.453-17.92c-11.947-3.413-24.747-1.707-35.84,4.267l-1.707,0.853c-1.707,0.853-4.267,0.853-5.12-0.853
	c-10.24-13.653-22.187-25.6-35.84-35.84c-1.707-1.707-2.56-3.413-0.853-5.12l23.893-41.813c-10.24-4.267-21.333-5.973-31.573-2.56
	c-11.947,3.413-22.187,11.093-28.16,22.187l-0.853,1.707c-0.853,1.707-3.413,2.56-5.12,1.707c-15.36-5.973-31.573-11.093-48.64-12.8
	c-1.707,0-3.413-1.707-3.413-4.267V9.813c-11.093,0.853-21.333,5.973-29.013,13.653c-8.533,8.533-13.653,20.48-13.653,33.28v1.707
	c0,2.56-1.707,4.267-3.413,4.267c-17.067,2.56-33.28,6.827-48.64,12.8c-1.707,0.853-4.267,0-5.12-1.707L148.479,32
	c-9.387,5.973-15.36,15.36-17.92,26.453c-3.413,11.947-1.707,24.747,4.267,35.84L135.679,96c0.853,1.707,0.853,4.267-0.853,5.12
	c-13.653,10.24-25.6,22.187-35.84,35.84c-1.707,1.707-3.413,2.56-5.12,0.853L52.053,113.92c-4.267,10.24-5.973,21.333-2.56,31.573
	c3.413,11.947,11.093,22.187,22.187,28.16l1.707,0.853c1.707,0.853,2.56,3.413,1.707,5.12c-5.973,15.36-11.093,31.573-12.8,48.64
	c0,1.707-1.707,3.413-4.267,3.413H9.386c2.56,23.893,22.187,42.667,46.933,42.667h1.707c2.56,0,4.267,1.707,4.267,3.413
	c2.56,17.067,6.827,33.28,12.8,48.64c0.853,1.707,0,4.267-1.707,5.12l-41.813,23.893c13.653,19.627,40.96,25.6,61.44,13.653
	l1.707-0.853c1.707-0.853,4.267-0.853,5.12,0.853c4.267,5.12,10.24,11.947,18.773,21.333c1.707,1.707,1.707,4.267,0,5.973
	c-1.707,1.707-4.267,1.707-5.973,0c-7.68-7.68-12.8-13.653-17.067-18.773c-26.453,13.653-58.88,4.267-74.24-21.333
	c-0.853-0.853-0.853-2.56,0-3.413c0-0.853,0.853-1.707,1.707-2.56l42.667-24.747c-5.12-13.653-9.387-28.16-11.947-43.52
	C23.893,281.174,0,256.427,0,226.561c0-2.56,1.707-4.267,4.267-4.267H53.76c2.56-15.36,5.973-29.867,11.947-43.52
	c-11.947-7.68-20.48-18.773-23.893-32.427c-3.413-14.507-1.707-29.013,5.12-41.813c0.853-1.707,3.413-2.56,5.973-1.707
	l42.667,24.747c9.387-11.947,20.48-22.187,31.573-31.573c-6.827-12.8-8.533-26.453-4.267-40.107
	c3.413-14.507,12.8-26.453,25.6-33.28c1.707-0.853,4.267-0.853,5.973,1.707L179.2,66.987c13.653-5.12,28.16-9.387,43.52-11.947
	c0.853-13.653,5.973-27.307,16.213-37.547c10.24-10.24,24.747-16.213,39.253-16.213c2.56,0,4.267,1.707,4.267,4.267V55.04
	c15.36,2.56,29.867,5.973,43.52,11.947c7.68-11.947,18.773-20.48,32.427-23.893c14.507-4.267,29.013-1.707,41.813,5.12
	c1.707,0.853,2.56,3.413,1.707,5.973l-24.747,42.667c11.947,9.387,22.187,19.627,31.573,31.573
	c12.8-6.827,26.453-8.533,40.107-4.267c14.507,3.413,26.453,12.8,33.28,25.6c0.853,0.853,0.853,2.56,0.853,3.413
	c0,0.853-0.853,1.707-1.707,2.56l-42.667,24.747c5.12,13.653,9.387,28.16,11.947,43.52c13.653,0.853,27.307,5.973,37.547,16.213
	c10.24,10.24,16.213,24.747,16.213,39.253c0,0.853-0.853,2.56-0.853,3.413s-1.707,0.853-3.413,0.853l0,0H450.56
	c-2.56,15.36-5.973,29.867-11.947,43.52c11.947,7.68,20.48,18.773,23.893,32.427c3.413,14.507,1.707,29.013-5.12,41.813
	c-0.853,0.853-1.707,1.707-2.56,1.707C454.826,401.493,454.826,401.493,453.973,401.493z M226.986,349.44
	c-0.853,0-1.707,0-1.707-0.853c-1.707-0.853-2.56-2.56-2.56-5.12l15.36-63.147H192c-1.707,0-3.413-0.853-3.413-2.56
	c-0.853-1.707-0.853-3.413,0-4.267l85.333-119.467c0.853-1.707,3.413-2.56,5.12-1.707c1.707,0.853,2.56,2.56,2.56,5.12
	l-16.213,80.213h46.08c1.707,0,3.413,0.853,4.267,2.56c0.853,1.707,0.853,3.413-0.853,4.267l-85.333,102.4
	C229.546,348.586,227.84,349.44,226.986,349.44z M201.386,272.64h42.667c1.707,0,2.56,0.853,3.413,1.707s0.853,2.56,0.853,3.413
	l-12.8,50.347l67.413-81.067H261.12c-0.853,0-2.56-0.853-3.413-1.707c-0.853-0.853-0.853-2.56-0.853-3.413l12.8-65.707
	L201.386,272.64z"/>
<g>
</g>
<g>
</g>
<g>
</g>
<g>
</g>
<g>
</g>
<g>
</g>
<g>
</g>
<g>
</g>
<g>
</g>
<g>
</g>
<g>
</g>
<g>
</g>
<g>
</g>
<g>
</g>
<g>
</g>
</svg>
