<?xml version="1.0" encoding="utf-8"?>
<!-- Generator: Adobe Illustrator 17.0.0, SVG Export Plug-In . SVG Version: 6.00 Build 0)  -->
<!DOCTYPE svg PUBLIC "-//W3C//DTD SVG 1.1//EN" "http://www.w3.org/Graphics/SVG/1.1/DTD/svg11.dtd">
<svg version="1.1" id="Layer_1" xmlns="http://www.w3.org/2000/svg" xmlns:xlink="http://www.w3.org/1999/xlink" x="0px" y="0px"
	 width="355px" height="75.312px" viewBox="0 0 355 75.312" enable-background="new 0 0 355 75.312" xml:space="preserve">
<g>
	<g>
		<path fill="#28AAE2" d="M293.714,41.722c0.486-0.123,0.699-0.19,0.916-0.231c1.562-0.296,3.034-0.812,4.386-1.673
			c6.43-4.095,6.795-12.798,0.722-17.402c-2.09-1.584-4.442-2.312-7.069-2.302c-7.094,0.027-14.188,0.005-21.282,0.005
			c-1.285,0-1.288,0.006-1.288,1.335c-0.001,10.378,0,20.756,0,31.134c0,0.23,0.005,0.46,0.004,0.69
			c-0.002,0.397,0.178,0.62,0.589,0.62c1.839,0.001,3.678,0.001,5.517,0c0.408,0,0.596-0.215,0.595-0.615
			c-0.001-0.23,0.004-0.46,0.004-0.69c0-3.12,0-6.24,0-9.36c0-5.583-0.002-11.166,0.002-16.749c0.001-1.125,0.03-1.155,1.166-1.156
			c4.828-0.004,9.656,0.004,14.483-0.006c0.992-0.002,1.869,0.283,2.665,0.863c1.957,1.426,2.798,4.141,2.015,6.522
			c-0.778,2.366-2.533,3.647-5.003,3.648c-3.744,0.002-7.488,0.015-11.232-0.012c-0.681-0.005-1.09,0.193-1.38,0.833
			c-0.555,1.226-1.19,2.415-1.784,3.623c-0.111,0.225-0.181,0.47-0.316,0.826c0.413,0.024,0.726,0.056,1.04,0.057
			c1.938,0.005,3.878,0.06,5.812-0.022c0.971-0.041,1.57,0.339,2.165,1.038c3.022,3.551,6.089,7.063,9.126,10.602
			c0.375,0.438,0.789,0.62,1.364,0.614c2.102-0.023,4.204-0.007,6.306-0.012c0.244-0.001,0.487-0.037,0.844-0.067
			c-1.78-2.065-3.482-4.019-5.161-5.993C297.231,45.856,295.457,43.937,293.714,41.722z"/>
		<path fill="#FFFFFF" d="M210.975,38.369c13.847,8.065,27.577,16.062,41.456,24.146c-0.472-1.298-26.968-47.676-27.518-48.208
			C220.286,22.294,215.667,30.269,210.975,38.369z"/>
		<path fill="#28AAE2" d="M56.891,50.524c0.056-0.024,0.111-0.049,0.167-0.073c0-2.132-0.107-4.27,0.032-6.393
			c0.122-1.86-0.436-3.253-1.679-4.675c-5.378-6.155-10.632-12.418-15.917-18.655c-0.379-0.448-0.795-0.628-1.362-0.614
			c-0.952,0.022-1.904,0.003-2.857,0.006c-1.36,0.003-1.363,0.005-1.363,1.362c-0.001,9.03-0.001,18.059,0,27.089
			c0,1.478-0.009,2.955,0.004,4.433c0.007,0.832,0.069,0.891,0.908,0.899c1.412,0.012,2.824,0.004,4.236,0.003
			c1.385-0.001,1.386-0.001,1.386-1.409c0-6.501-0.001-13.003,0.003-19.504c0-0.371,0.043-0.742,0.065-1.095
			c0.202,0,0.298-0.028,0.325,0.004C46.194,38.106,51.542,44.315,56.891,50.524z"/>
		<path fill="#28AAE2" d="M69.278,25.324c0.535,0,0.888,0,1.242,0c3.548,0,7.096-0.001,10.645,0
			c1.451,0.001,1.454,0.003,1.454,1.475c0.001,8.509,0.001,17.018,0.001,25.527c0,0.263-0.009,0.526,0.003,0.788
			c0.032,0.704,0.09,0.777,0.82,0.786c1.38,0.016,2.76,0.006,4.139,0.005c1.656-0.001,1.646,0.165,1.645-1.682
			c-0.004-8.312-0.005-16.624,0.004-24.936c0.001-0.611,0.079-1.222,0.126-1.902c0.505-0.024,0.892-0.058,1.278-0.059
			c2.957-0.005,5.914-0.02,8.87,0.01c0.662,0.007,1.026-0.225,1.261-0.833c0.475-1.224,1.006-2.426,1.499-3.643
			c0.078-0.192,0.077-0.416,0.132-0.741c-0.451,0-0.806,0-1.161,0c-9.495,0-18.989,0-28.484,0c-0.23,0-0.46,0.01-0.69,0.005
			c-0.405-0.008-0.692,0.158-0.85,0.539C70.597,22.146,69.981,23.629,69.278,25.324z"/>
		<path fill="#28AAE2" d="M337.939,20.19c-0.514-0.03-0.864-0.069-1.214-0.069c-9.029-0.003-18.059-0.003-27.088-0.002
			c-1.291,0-1.293,0.006-1.293,1.329c-0.001,10.376,0,20.751,0,31.127c0,0.164-0.005,0.329,0.002,0.492
			c0.03,0.755,0.088,0.828,0.873,0.834c1.609,0.013,3.218,0.009,4.827,0.002c0.965-0.004,0.994-0.041,1.009-0.997
			c0.004-0.23,0.001-0.46,0.001-0.69c0-8.438-0.001-16.877,0.001-25.315c0-1.591-0.142-1.577,1.537-1.576
			c6.041,0.002,12.083,0.001,18.124,0.001c1.174,0,1.174-0.003,1.632-1.118c0.411-1.002,0.827-2.002,1.234-3.005
			C337.69,20.936,337.775,20.658,337.939,20.19z"/>
		<path fill="#28AAE2" d="M135.13,20.189c-0.625-0.03-1.042-0.068-1.459-0.068c-8.898-0.003-17.796-0.003-26.694-0.002
			c-0.263,0-0.525,0.007-0.788,0.006c-0.497-0.002-0.714,0.252-0.697,0.737c0.009,0.262,0,0.525,0,0.788c0,5.45,0,10.901,0,16.351
			c0,4.925-0.001,9.85,0.001,14.775c0.001,1.111,0.013,1.123,1.075,1.127c1.51,0.006,3.021,0.005,4.531,0
			c1.084-0.003,1.093-0.018,1.102-1.101c0.002-0.197,0-0.394,0-0.591c0-8.504,0-17.008,0.001-25.512
			c0-1.367,0.004-1.372,1.346-1.372c5.221-0.002,10.441-0.001,15.662-0.001c1.018,0,2.036-0.023,3.053,0.009
			c0.537,0.017,0.861-0.165,1.049-0.676c0.237-0.646,0.529-1.272,0.789-1.91C134.421,21.966,134.733,21.18,135.13,20.189z"/>
		<path fill="#FFFFFF" d="M262.492,45.319c0-5.453-0.022-10.907,0.019-16.36c0.008-1.086-0.385-1.788-1.282-2.347
			c-2.342-1.458-4.653-2.965-6.985-4.439c-0.342-0.216-0.724-0.68-1.119-0.359c-0.224,0.182-0.23,0.707-0.231,1.077
			c-0.011,10.874,0.002,21.748-0.026,32.622c-0.003,1.121,0.421,1.847,1.347,2.422c2.343,1.456,4.653,2.966,6.989,4.433
			c0.314,0.197,0.761,0.455,1.045,0.365c0.442-0.141,0.235-0.686,0.236-1.054C262.496,56.226,262.492,50.773,262.492,45.319z"/>
		<path fill="#28AAE2" d="M27.434,37.087c0-5.255,0.001-10.51-0.001-15.764c0-1.181-0.019-1.198-1.223-1.203
			c-1.379-0.005-2.759-0.003-4.138-0.001c-1.347,0.003-1.349,0.005-1.349,1.373c-0.001,10.378,0,20.756,0,31.134
			c0,0.164-0.006,0.329,0.002,0.493c0.034,0.675,0.094,0.772,0.728,0.779c1.74,0.019,3.481,0.018,5.222,0.001
			c0.649-0.006,0.72-0.103,0.755-0.752c0.012-0.229,0.003-0.46,0.003-0.69C27.434,47.334,27.434,42.211,27.434,37.087z"/>
		<path fill="#28AAE2" d="M59.523,37.055c0,5.219-0.002,10.437,0.001,15.656c0.001,1.189,0.007,1.192,1.215,1.194
			c1.378,0.003,2.757,0.003,4.135,0c1.191-0.002,1.191-0.005,1.196-1.206c0-0.066,0-0.131,0-0.197c0-10.306,0-20.611,0-30.917
			c0-0.197,0.006-0.394-0.002-0.591c-0.031-0.757-0.107-0.859-0.86-0.868c-1.608-0.018-3.217-0.018-4.825,0.001
			c-0.739,0.009-0.825,0.124-0.858,0.878c-0.011,0.262-0.004,0.525-0.004,0.788C59.523,26.881,59.523,31.968,59.523,37.055z"/>
		<path fill="#28AAE2" d="M138.574,37.054c0,0.493,0,0.985,0,1.478c0,4.696-0.001,9.393,0.001,14.089
			c0,1.282,0.004,1.283,1.324,1.285c1.412,0.001,2.824,0.006,4.237-0.002c0.965-0.005,0.999-0.048,1.019-0.994
			c0.003-0.131,0.001-0.263,0.001-0.394c0-10.313,0-20.625,0-30.938c0-0.23,0.01-0.461-0.006-0.689
			c-0.044-0.627-0.134-0.748-0.774-0.756c-1.675-0.022-3.35-0.022-5.025,0c-0.631,0.008-0.727,0.136-0.769,0.763
			c-0.018,0.262-0.007,0.525-0.007,0.788C138.574,26.807,138.574,31.93,138.574,37.054z"/>
		<path fill="#28AAE2" d="M175.711,37.069c0-5.288,0.003-10.575-0.002-15.863c-0.001-1.012-0.065-1.074-1.051-1.083
			c-1.314-0.012-2.627-0.004-3.941-0.003c-1.585,0.001-1.586,0.001-1.586,1.542c0,10.28,0,20.559,0,30.839
			c0,0.23,0.01,0.46,0.003,0.69c-0.016,0.492,0.21,0.719,0.709,0.717c1.708-0.008,3.416,0.01,5.123-0.009
			c0.639-0.007,0.705-0.104,0.742-0.77c0.014-0.262,0.005-0.525,0.005-0.788C175.712,47.25,175.712,42.159,175.711,37.069z"/>
		<path fill="#FFFFFF" d="M209.359,41.489c-4.049,7.065-8.018,13.991-12.088,21.093c1.955-0.91,23.027-13.596,23.592-14.197
			C217.055,46.102,213.261,43.828,209.359,41.489z"/>
		<path fill="#28AAE2" d="M316.099,53.825c0.326,0.041,0.481,0.076,0.636,0.077c1.215,0.005,2.43,0.003,3.645,0.003
			c4.761,0,9.522-0.011,14.283,0.012c0.686,0.003,1.08-0.19,1.329-0.866c0.465-1.261,1.026-2.487,1.533-3.733
			c0.078-0.191,0.08-0.414,0.138-0.742c-0.423,0-0.744,0-1.066,0c-5.582,0-11.164,0-16.746,0c-0.164,0-0.328,0.006-0.492,0.002
			c-0.365-0.01-0.625,0.14-0.794,0.469C317.771,50.593,316.972,52.134,316.099,53.825z"/>
		<path fill="#28AAE2" d="M113.248,53.825c0.325,0.041,0.48,0.077,0.636,0.077c1.215,0.005,2.43,0.003,3.645,0.003
			c4.761,0,9.522-0.011,14.283,0.012c0.686,0.003,1.08-0.19,1.329-0.865c0.465-1.261,1.026-2.487,1.533-3.733
			c0.078-0.191,0.08-0.414,0.138-0.742c-0.421,0-0.744,0-1.066,0c-5.582,0-11.164,0-16.746,0c-0.164,0-0.328,0.006-0.492,0.002
			c-0.365-0.01-0.625,0.14-0.795,0.469C114.92,50.592,114.122,52.133,113.248,53.825z"/>
		<path fill="#28AAE2" d="M114.235,39.492c0.402,0.025,0.716,0.06,1.031,0.061c1.838,0.005,3.676,0.003,5.513,0.003
			c3.774,0,7.548-0.013,11.322,0.011c0.682,0.004,1.085-0.188,1.333-0.864c0.452-1.23,0.996-2.426,1.49-3.641
			c0.078-0.192,0.098-0.408,0.165-0.703c-0.454,0-0.811,0-1.169,0c-3.15,0-6.301,0-9.451,0c-2.363,0-4.726-0.001-7.089,0.001
			c-1.212,0.001-1.217,0.001-1.645,1.085c-0.422,1.067-0.833,2.139-1.242,3.211C114.402,38.891,114.343,39.139,114.235,39.492z"/>
		<path fill="#28AAE2" d="M338.071,34.359c-0.544,0-0.898,0-1.251,0c-5.021,0-10.042,0-15.063,0c-0.558,0-1.116-0.003-1.674,0.001
			c-1.062,0.006-1.069,0.005-1.442,0.948c-0.447,1.128-0.884,2.26-1.315,3.394c-0.088,0.231-0.132,0.479-0.232,0.854
			c0.465,0,0.818,0,1.171,0c5.48,0,10.961,0,16.441,0c0.197,0,0.394-0.011,0.591-0.003c0.407,0.015,0.687-0.148,0.846-0.534
			C336.752,37.536,337.368,36.056,338.071,34.359z"/>
		<path fill="#28AAE2" d="M196.094,48.68c-0.216-0.042-0.367-0.097-0.519-0.097c-5.115-0.005-10.23,0.001-15.345-0.012
			c-0.54-0.001-0.835,0.236-1.063,0.695c-0.656,1.32-1.343,2.625-2.005,3.942c-0.091,0.181-0.111,0.399-0.168,0.616
			c0.179,0.037,0.273,0.074,0.368,0.075c5.312,0.004,10.623,0,15.935,0.015c0.551,0.002,0.834-0.24,1.027-0.721
			c0.523-1.308,1.071-2.606,1.602-3.911C195.995,49.108,196.028,48.92,196.094,48.68z"/>
		<path fill="#28AAE2" d="M146.282,53.806c0.374,0.05,0.561,0.096,0.747,0.096c5.213,0.004,10.427-0.004,15.64,0.013
			c0.583,0.002,0.903-0.218,1.111-0.747c0.49-1.25,1.017-2.486,1.521-3.731c0.093-0.231,0.147-0.479,0.26-0.859
			c-0.427,0-0.744,0-1.062,0c-4.82,0-9.64,0-14.459,0c-0.197,0-0.415-0.049-0.585,0.019c-0.255,0.101-0.579,0.231-0.695,0.445
			C147.935,50.565,147.155,52.113,146.282,53.806z"/>
		<path fill="#FFFFFF" d="M253.32,19.366c0.329,0.276,0.51,0.461,0.722,0.6c2.195,1.437,4.395,2.868,6.596,4.297
			c0.191,0.124,0.39,0.255,0.604,0.319c0.731,0.218,1.197-0.138,1.211-0.91c0.009-0.492-0.002-0.984-0.009-1.476
			c-0.035-2.362-0.065-4.724-0.113-7.086c-0.018-0.892-0.561-1.203-1.368-0.813c-0.117,0.057-0.225,0.135-0.335,0.206
			c-2.174,1.411-4.348,2.82-6.518,4.236C253.873,18.895,253.663,19.093,253.32,19.366z"/>
		<path fill="#28AAE2" d="M293.714,41.722c1.743,2.215,3.517,4.133,5.207,6.121c1.679,1.974,3.381,3.928,5.161,5.993
			c-0.357,0.029-0.6,0.066-0.844,0.067c-2.102,0.005-4.204-0.012-6.306,0.012c-0.575,0.006-0.988-0.177-1.364-0.614
			c-3.037-3.538-6.103-7.051-9.126-10.602c-0.596-0.7-1.194-1.079-2.165-1.038c-1.934,0.081-3.874,0.026-5.812,0.022
			c-0.313-0.001-0.627-0.033-1.04-0.057c0.135-0.356,0.205-0.601,0.316-0.826c0.594-1.208,1.229-2.397,1.784-3.623
			c0.29-0.64,0.699-0.838,1.38-0.833c3.744,0.027,7.488,0.014,11.232,0.012c2.47-0.001,4.224-1.282,5.003-3.648
			c0.783-2.381-0.058-5.095-2.015-6.522c-0.796-0.58-1.674-0.865-2.665-0.863c-4.828,0.01-9.656,0.002-14.483,0.006
			c-1.135,0.001-1.165,0.032-1.166,1.156c-0.004,5.583-0.002,11.166-0.002,16.749c0,3.12,0,6.24,0,9.36
			c0,0.23-0.005,0.46-0.004,0.69c0.001,0.399-0.187,0.614-0.595,0.615c-1.839,0.001-3.678,0.001-5.517,0
			c-0.411,0-0.591-0.223-0.589-0.62c0.001-0.23-0.004-0.46-0.004-0.69c0-10.378,0-20.756,0-31.134c0-1.328,0.002-1.335,1.288-1.335
			c7.094,0,14.188,0.022,21.282-0.005c2.628-0.01,4.979,0.718,7.069,2.302c6.074,4.604,5.708,13.307-0.722,17.402
			c-1.352,0.861-2.824,1.377-4.386,1.673C294.413,41.533,294.2,41.599,293.714,41.722z"/>
		<path fill="#8E8E8E" d="M210.975,38.369c4.692-8.1,9.311-16.075,13.938-24.063c0.55,0.532,27.047,46.91,27.518,48.208
			C238.551,54.431,224.822,46.435,210.975,38.369z M231.085,40.792c0.058-0.069,0.115-0.138,0.173-0.207
			c-2.047-3.46-4.094-6.92-6.244-10.555c-1.133,1.923-2.155,3.657-3.227,5.475C224.954,37.307,228.02,39.05,231.085,40.792z"/>
		<path fill="#28AAE2" d="M56.891,50.524c-5.349-6.209-10.697-12.418-16.051-18.623c-0.027-0.031-0.123-0.004-0.325-0.004
			c-0.022,0.352-0.065,0.724-0.065,1.095c-0.004,6.501-0.003,13.003-0.003,19.504c0,1.408-0.001,1.409-1.386,1.409
			c-1.412,0.001-2.824,0.009-4.236-0.003c-0.839-0.007-0.9-0.066-0.908-0.899c-0.013-1.477-0.004-2.955-0.004-4.433
			c0-9.03,0-18.059,0-27.089c0-1.358,0.003-1.359,1.363-1.362c0.952-0.002,1.905,0.017,2.857-0.006
			c0.567-0.013,0.983,0.167,1.362,0.614c5.285,6.236,10.538,12.5,15.917,18.655c1.242,1.422,1.8,2.815,1.679,4.675
			c-0.139,2.123-0.032,4.261-0.032,6.393C57.003,50.475,56.947,50.499,56.891,50.524z"/>
		<path fill="#28AAE2" d="M69.278,25.324c0.704-1.695,1.32-3.177,1.934-4.66c0.158-0.382,0.445-0.548,0.85-0.539
			c0.23,0.005,0.46-0.005,0.69-0.005c9.495,0,18.989,0,28.484,0c0.355,0,0.71,0,1.161,0c-0.055,0.326-0.054,0.549-0.132,0.741
			c-0.493,1.217-1.024,2.419-1.499,3.643c-0.236,0.608-0.599,0.84-1.261,0.833c-2.956-0.03-5.913-0.015-8.87-0.01
			c-0.386,0.001-0.773,0.035-1.278,0.059c-0.047,0.68-0.125,1.291-0.126,1.902c-0.008,8.312-0.008,16.624-0.004,24.936
			c0.001,1.847,0.011,1.681-1.645,1.682c-1.38,0.001-2.76,0.011-4.139-0.005c-0.73-0.008-0.788-0.082-0.82-0.786
			c-0.012-0.262-0.003-0.526-0.003-0.788c0-8.509,0-17.018-0.001-25.527c0-1.472-0.003-1.474-1.454-1.475
			c-3.548-0.001-7.096,0-10.645,0C70.166,25.324,69.812,25.324,69.278,25.324z"/>
		<path fill="#28AAE2" d="M337.939,20.19c-0.164,0.468-0.249,0.745-0.358,1.013c-0.407,1.003-0.823,2.003-1.234,3.005
			c-0.458,1.115-0.457,1.118-1.632,1.118c-6.041,0.001-12.083,0.002-18.124-0.001c-1.679-0.001-1.537-0.014-1.537,1.576
			c-0.002,8.438-0.001,16.877-0.001,25.315c0,0.23,0.003,0.46-0.001,0.69c-0.015,0.955-0.044,0.992-1.009,0.997
			c-1.609,0.008-3.218,0.011-4.827-0.002c-0.785-0.006-0.843-0.079-0.873-0.834c-0.006-0.164-0.002-0.328-0.002-0.492
			c0-10.376,0-20.751,0-31.127c0-1.323,0.003-1.328,1.293-1.329c9.029-0.002,18.059-0.002,27.088,0.002
			C337.075,20.122,337.425,20.16,337.939,20.19z"/>
		<path fill="#28AAE2" d="M135.13,20.189c-0.397,0.99-0.709,1.777-1.028,2.56c-0.26,0.638-0.552,1.264-0.789,1.91
			c-0.188,0.511-0.512,0.693-1.049,0.676c-1.017-0.032-2.035-0.009-3.053-0.009c-5.221,0-10.441-0.001-15.662,0.001
			c-1.342,0.001-1.346,0.005-1.346,1.372c-0.001,8.504-0.001,17.008-0.001,25.512c0,0.197,0.001,0.394,0,0.591
			c-0.009,1.084-0.019,1.098-1.102,1.101c-1.51,0.005-3.021,0.005-4.531,0c-1.063-0.004-1.075-0.016-1.075-1.127
			c-0.003-4.925-0.001-9.85-0.001-14.775c0-5.45,0-10.901,0-16.351c0-0.263,0.009-0.526,0-0.788c-0.016-0.486,0.2-0.74,0.697-0.737
			c0.263,0.001,0.525-0.006,0.788-0.006c8.898,0,17.796-0.001,26.694,0.002C134.088,20.122,134.505,20.159,135.13,20.189z"/>
		<path fill="#8E8E8E" d="M262.492,45.319c0,5.453,0.004,10.907-0.008,16.36c-0.001,0.368,0.206,0.913-0.236,1.054
			c-0.283,0.09-0.731-0.167-1.045-0.365c-2.336-1.467-4.646-2.977-6.989-4.433c-0.926-0.575-1.349-1.301-1.347-2.422
			c0.028-10.874,0.015-21.748,0.026-32.622c0-0.371,0.007-0.896,0.231-1.077c0.395-0.321,0.778,0.143,1.119,0.359
			c2.333,1.473,4.643,2.981,6.985,4.439c0.897,0.558,1.291,1.261,1.282,2.347C262.47,34.412,262.492,39.866,262.492,45.319z"/>
		<path fill="#28AAE2" d="M27.434,37.087c0,5.123,0,10.247,0,15.37c0,0.23,0.009,0.46-0.003,0.69
			c-0.035,0.649-0.106,0.746-0.755,0.752c-1.74,0.016-3.481,0.018-5.222-0.001c-0.634-0.007-0.694-0.104-0.728-0.779
			c-0.008-0.164-0.002-0.328-0.002-0.493c0-10.378,0-20.756,0-31.134c0-1.368,0.002-1.37,1.349-1.373
			c1.379-0.003,2.759-0.004,4.138,0.001c1.204,0.004,1.222,0.022,1.223,1.203C27.435,26.578,27.434,31.833,27.434,37.087z"/>
		<path fill="#28AAE2" d="M59.523,37.055c0-5.087,0-10.174,0-15.262c0-0.263-0.007-0.526,0.004-0.788
			c0.033-0.754,0.118-0.869,0.858-0.878c1.608-0.02,3.216-0.019,4.825-0.001c0.754,0.008,0.83,0.111,0.86,0.868
			c0.008,0.197,0.002,0.394,0.002,0.591c0,10.306,0,20.611,0,30.917c0,0.066,0,0.131,0,0.197c-0.005,1.201-0.005,1.203-1.196,1.206
			c-1.378,0.003-2.757,0.003-4.135,0c-1.208-0.002-1.215-0.005-1.215-1.194C59.522,47.492,59.523,42.274,59.523,37.055z"/>
		<path fill="#28AAE2" d="M138.574,37.054c0-5.123,0-10.247,0-15.37c0-0.263-0.011-0.526,0.007-0.788
			c0.042-0.627,0.138-0.755,0.769-0.763c1.675-0.022,3.35-0.022,5.025,0c0.641,0.008,0.73,0.13,0.774,0.756
			c0.016,0.229,0.006,0.46,0.006,0.689c0,10.313,0,20.625,0,30.938c0,0.131,0.002,0.263-0.001,0.394
			c-0.02,0.947-0.054,0.989-1.019,0.994c-1.412,0.008-2.824,0.003-4.237,0.002c-1.32-0.001-1.324-0.002-1.324-1.285
			c-0.002-4.696-0.001-9.393-0.001-14.089C138.574,38.039,138.574,37.546,138.574,37.054z"/>
		<path fill="#28AAE2" d="M175.711,37.069c0,5.091,0,10.181,0,15.272c0,0.263,0.009,0.526-0.005,0.788
			c-0.036,0.665-0.102,0.763-0.742,0.77c-1.708,0.018-3.416,0.001-5.123,0.009c-0.499,0.002-0.725-0.225-0.709-0.717
			c0.007-0.23-0.003-0.46-0.003-0.69c0-10.28-0.001-20.559,0-30.839c0-1.541,0.001-1.541,1.586-1.542
			c1.314-0.001,2.627-0.008,3.941,0.003c0.987,0.009,1.05,0.072,1.051,1.083C175.714,26.493,175.711,31.781,175.711,37.069z"/>
		<path fill="#8E8E8E" d="M209.359,41.489c3.902,2.339,7.696,4.614,11.504,6.896c-0.565,0.6-21.637,13.286-23.592,14.197
			C201.341,55.48,205.31,48.554,209.359,41.489z"/>
		<path fill="#28AAE2" d="M316.099,53.825c0.874-1.692,1.672-3.233,2.465-4.776c0.169-0.329,0.43-0.479,0.794-0.469
			c0.164,0.005,0.328-0.002,0.492-0.002c5.582,0,11.164,0,16.746,0c0.322,0,0.643,0,1.066,0c-0.058,0.328-0.06,0.55-0.138,0.742
			c-0.507,1.246-1.068,2.472-1.533,3.733c-0.249,0.675-0.642,0.869-1.329,0.866c-4.761-0.024-9.522-0.012-14.283-0.012
			c-1.215,0-2.43,0.002-3.645-0.003C316.58,53.902,316.425,53.866,316.099,53.825z"/>
		<path fill="#28AAE2" d="M113.248,53.825c0.874-1.692,1.672-3.233,2.465-4.777c0.169-0.329,0.43-0.479,0.795-0.469
			c0.164,0.005,0.328-0.002,0.492-0.002c5.582,0,11.164,0,16.746,0c0.322,0,0.644,0,1.066,0c-0.058,0.328-0.06,0.551-0.138,0.742
			c-0.507,1.246-1.068,2.472-1.533,3.733c-0.249,0.675-0.643,0.869-1.329,0.865c-4.761-0.024-9.522-0.012-14.283-0.012
			c-1.215,0-2.43,0.002-3.645-0.003C113.728,53.902,113.573,53.866,113.248,53.825z"/>
		<path fill="#28AAE2" d="M114.235,39.492c0.107-0.353,0.167-0.601,0.257-0.837c0.409-1.072,0.821-2.144,1.242-3.211
			c0.428-1.084,0.434-1.084,1.645-1.085c2.363-0.002,4.726-0.001,7.089-0.001c3.15,0,6.301,0,9.451,0c0.357,0,0.714,0,1.169,0
			c-0.067,0.295-0.087,0.511-0.165,0.703c-0.494,1.215-1.038,2.411-1.49,3.641c-0.248,0.675-0.65,0.868-1.333,0.864
			c-3.774-0.024-7.548-0.011-11.322-0.011c-1.838,0-3.676,0.003-5.513-0.003C114.951,39.552,114.637,39.517,114.235,39.492z"/>
		<path fill="#28AAE2" d="M338.071,34.359c-0.703,1.697-1.319,3.176-1.928,4.659c-0.159,0.386-0.439,0.549-0.846,0.534
			c-0.197-0.007-0.394,0.003-0.591,0.003c-5.48,0-10.961,0-16.441,0c-0.353,0-0.707,0-1.171,0c0.1-0.375,0.144-0.623,0.232-0.854
			c0.431-1.134,0.868-2.266,1.315-3.394c0.373-0.943,0.381-0.942,1.442-0.948c0.558-0.003,1.116-0.001,1.674-0.001
			c5.021,0,10.042,0,15.063,0C337.173,34.359,337.527,34.359,338.071,34.359z"/>
		<path fill="#28AAE2" d="M196.094,48.68c-0.066,0.24-0.098,0.428-0.169,0.601c-0.532,1.305-1.08,2.602-1.602,3.911
			c-0.192,0.481-0.476,0.723-1.027,0.721c-5.312-0.015-10.623-0.011-15.935-0.015c-0.095,0-0.189-0.037-0.368-0.075
			c0.057-0.217,0.077-0.434,0.168-0.616c0.662-1.317,1.35-2.621,2.005-3.942c0.228-0.459,0.523-0.696,1.063-0.695
			c5.115,0.013,10.23,0.007,15.345,0.012C195.726,48.583,195.878,48.638,196.094,48.68z"/>
		<path fill="#28AAE2" d="M146.282,53.806c0.873-1.693,1.653-3.241,2.478-4.764c0.116-0.214,0.44-0.344,0.695-0.445
			c0.17-0.068,0.388-0.019,0.585-0.019c4.82,0,9.64,0,14.459,0c0.317,0,0.635,0,1.062,0c-0.114,0.38-0.167,0.627-0.26,0.859
			c-0.504,1.245-1.031,2.481-1.521,3.731c-0.207,0.529-0.527,0.749-1.111,0.747c-5.213-0.017-10.427-0.009-15.64-0.013
			C146.843,53.902,146.656,53.856,146.282,53.806z"/>
		<path fill="#8E8E8E" d="M253.32,19.366c0.343-0.274,0.552-0.471,0.79-0.626c2.17-1.416,4.345-2.825,6.518-4.236
			c0.11-0.071,0.218-0.149,0.335-0.206c0.807-0.39,1.35-0.079,1.368,0.813c0.048,2.362,0.078,4.724,0.113,7.086
			c0.007,0.492,0.018,0.984,0.009,1.476c-0.014,0.772-0.481,1.128-1.211,0.91c-0.214-0.064-0.414-0.195-0.604-0.319
			c-2.201-1.429-4.401-2.86-6.596-4.297C253.831,19.828,253.65,19.642,253.32,19.366z"/>
		<path fill="#FFFFFF" d="M231.085,40.792c-3.066-1.743-6.131-3.486-9.299-5.286c1.072-1.819,2.094-3.552,3.227-5.475
			c2.151,3.635,4.197,7.095,6.244,10.555C231.2,40.654,231.143,40.723,231.085,40.792z"/>
		<path fill="none" stroke="#1D75BC" stroke-miterlimit="10" d="M350.762,60.813c0,4.536-3.677,8.214-8.214,8.214H12.242
			c-4.536,0-8.214-3.677-8.214-8.214V13.841c0-4.536,3.677-8.214,8.214-8.214h330.307c4.536,0,8.214,3.677,8.214,8.214V60.813z"/>
	</g>
</g>
</svg>
