<svg height="512pt" viewBox="-17 0 512 512.00099" width="512pt" xmlns="http://www.w3.org/2000/svg"><path d="m280.917969 398.746094h-25.679688c-7.9375 19.292968-26.929687 32.914062-49.050781 32.914062s-41.113281-13.621094-49.046875-32.914062h-25.679687c7.246093 26.902344 28.660156 48.050781 55.71875 54.910156 2.875.730469 4.871093 3.335938 4.871093 6.300781v30.0625h28.273438v-30.21875c0-2.871093 1.933593-5.40625 4.71875-6.105469 27.128906-6.820312 48.613281-27.992187 55.875-54.949218zm0 0" fill="#525468"/><path d="m225.980469 431.660156c22.121093 0 41.109375-13.621094 49.046875-32.914062h-19.789063c-6.722656 16.34375-21.382812 28.613281-39.152343 31.984375 3.203124.609375 6.511718.929687 9.894531.929687zm0 0" fill="#3e4151"/><path d="m206.96875 453.65625c-27.054688-6.859375-48.472656-28.003906-55.71875-54.910156h-19.789062c7.242187 26.902344 28.660156 48.050781 55.71875 54.910156 2.875.730469 4.871093 3.339844 4.871093 6.304688v30.0625h19.792969v-30.0625c0-2.96875-2-5.574219-4.875-6.304688zm0 0" fill="#3e4151"/><path d="m232.671875 486.976562h-52.96875c-6.4375 0-11.699219 5.265626-11.699219 11.699219v1.625c0 6.433594 5.261719 11.699219 11.699219 11.699219h52.96875c6.4375 0 11.699219-5.265625 11.699219-11.699219v-1.625c0-6.433593-5.261719-11.699219-11.699219-11.699219zm0 0" fill="#525468"/><path d="m232.671875 495.925781h-52.96875c-3.710937 0-7.027344-1.757812-9.175781-4.472656-1.574219 1.992187-2.523438 4.5-2.523438 7.222656v1.625c0 6.433594 5.261719 11.699219 11.699219 11.699219h52.96875c6.4375 0 11.699219-5.265625 11.699219-11.699219v-1.625c0-2.722656-.949219-5.230469-2.523438-7.222656-2.148437 2.714844-5.460937 4.472656-9.175781 4.472656zm0 0" fill="#3e4151"/><path d="m404.402344 388.789062s-56.578125-181.144531-57.929688-185.472656c-1.097656-3.507812-4.347656-5.898437-8.023437-5.898437-3.320313 0-261 0-264.523438 0-3.675781 0-6.925781 2.390625-8.019531 5.898437-3.390625 10.847656-57.933594 185.472656-57.933594 185.472656-1.542968 4.9375 2.148438 9.957032 7.324219 9.957032h381.785156c5.171875 0 8.863281-5.019532 7.320313-9.957032zm0 0" fill="#525468"/><path d="m36.851562 388.789062s54.542969-174.625 57.933594-185.472656c1.09375-3.507812 4.34375-5.898437 8.019532-5.898437-17.15625 0-28.167969 0-28.878907 0-3.675781 0-6.925781 2.390625-8.023437 5.898437-3.386719 10.847656-57.929688 185.472656-57.929688 185.472656-1.542968 4.9375 2.148438 9.957032 7.320313 9.957032h28.882812c-5.175781 0-8.867187-5.019532-7.324219-9.957032zm0 0" fill="#3e4151"/><path d="m411.667969 386.519531c-.40625-1.304687-57.523438-184.167969-57.929688-185.46875-2.101562-6.726562-8.242187-11.242187-15.289062-11.242187-3.320313 0-261 0-264.523438 0-7.042969 0-13.1875 4.515625-15.285156 11.238281l-57.933594 185.472656c-3.074219 9.847657 4.269531 19.835938 14.589844 19.835938h381.785156c10.316407 0 17.664063-9.988281 14.585938-19.835938zm-300.988281 4.574219 10.355468-63.707031h77.542969v63.742187zm-53.78125-133.414062h60.046874l-8.859374 54.484374h-68.203126c3.265626-10.460937 13.460938-43.105468 17.015626-54.484374zm75.46875 0h66.210937v54.484374h-75.066406zm81.433593 0h66.207031l8.855469 54.484374h-75.0625zm81.628907 0h60.023437l16.996094 54.484374h-68.160157zm43.777343-52.09375 11.496094 36.867187h-57.746094l-6.085937-37.421875h51.578125c.347656 0 .652343.222656.757812.554688zm-61.675781 36.867187h-63.730469v-37.421875h57.648438zm-78.953125-37.421875v37.421875h-63.734375l6.082031-37.421875zm-125.40625.554688c.101563-.332032.40625-.554688.753906-.554688h51.574219l-6.082031 37.421875h-57.761719zm-57.933594 185.472656 19.886719-63.671875h70.488281l-10.355469 63.703125zm198.5625.074218v-63.746093h77.539063l10.363281 63.746093zm103.324219 0-10.363281-63.746093h70.433593l19.886719 63.746093zm0 0" fill="#747791"/><path d="m426.746094 95.953125c0 24.246094-19.652344 43.898437-43.898438 43.898437s-43.898437-19.652343-43.898437-43.898437 19.652343-43.898437 43.898437-43.898437 43.898438 19.652343 43.898438 43.898437zm0 0" fill="#ffc964"/><path d="m359.246094 95.953125c0-20.75 14.402344-38.125 33.75-42.707031-3.257813-.769532-6.652344-1.191406-10.148438-1.191406-24.246094 0-43.898437 19.65625-43.898437 43.898437 0 28.382813 26.488281 49.234375 54.046875 42.707031-19.347656-4.582031-33.75-21.957031-33.75-42.707031zm0 0" fill="#f3a334"/><g fill="#ffc964"><path d="m382.847656 31.285156c-4.203125 0-7.613281-3.40625-7.613281-7.613281v-16.058594c0-4.207031 3.410156-7.613281 7.613281-7.613281s7.613282 3.40625 7.613282 7.613281v16.058594c-.003907 4.207031-3.410157 7.613281-7.613282 7.613281zm0 0"/><path d="m382.847656 191.90625c-4.203125 0-7.613281-3.410156-7.613281-7.613281v-16.0625c0-4.203125 3.410156-7.613281 7.613281-7.613281s7.613282 3.410156 7.613282 7.613281v16.0625c-.003907 4.203125-3.410157 7.613281-7.613282 7.613281zm0 0"/><path d="m326.355469 50.226562-11.359375-11.355468c-2.972656-2.972656-2.972656-7.792969 0-10.765625 2.972656-2.972657 7.792968-2.972657 10.765625 0l11.359375 11.355469c2.972656 2.972656 2.972656 7.792968 0 10.765624-2.976563 2.972657-7.792969 2.972657-10.765625 0zm0 0"/><path d="m439.929688 163.800781-11.355469-11.355469c-2.972657-2.972656-2.972657-7.792968 0-10.765624 2.972656-2.972657 7.792969-2.972657 10.761719 0l11.359374 11.355468c2.972657 2.976563 2.972657 7.792969 0 10.765625-2.972656 2.972657-7.792968 2.972657-10.765624 0zm0 0"/><path d="m310.566406 103.5625h-16.058594c-4.207031 0-7.613281-3.40625-7.613281-7.609375 0-4.207031 3.40625-7.613281 7.613281-7.613281h16.058594c4.207032 0 7.613282 3.40625 7.613282 7.613281 0 4.203125-3.40625 7.609375-7.613282 7.609375zm0 0"/><path d="m471.1875 103.5625h-16.0625c-4.203125 0-7.613281-3.40625-7.613281-7.609375 0-4.207031 3.410156-7.613281 7.613281-7.613281h16.0625c4.203125 0 7.613281 3.40625 7.613281 7.613281 0 4.203125-3.410156 7.609375-7.613281 7.609375zm0 0"/><path d="m314.996094 163.800781c-2.972656-2.972656-2.972656-7.789062 0-10.765625l11.359375-11.355468c2.972656-2.972657 7.792969-2.972657 10.765625 0 2.972656 2.972656 2.972656 7.792968 0 10.765624l-11.359375 11.355469c-2.972657 2.972657-7.792969 2.972657-10.765625 0zm0 0"/><path d="m428.574219 50.226562c-2.972657-2.972656-2.972657-7.792968 0-10.765624l11.355469-11.355469c2.972656-2.972657 7.792968-2.972657 10.765624 0 2.972657 2.972656 2.972657 7.792969 0 10.765625l-11.359374 11.355468c-2.972657 2.972657-7.789063 2.972657-10.761719 0zm0 0"/></g></svg>