<?xml version="1.0" encoding="iso-8859-1"?>
<!-- Generator: Adobe Illustrator 19.0.0, SVG Export Plug-In . SVG Version: 6.00 Build 0)  -->
<svg version="1.1" id="Capa_1" xmlns="http://www.w3.org/2000/svg" xmlns:xlink="http://www.w3.org/1999/xlink" x="0px" y="0px"
	 viewBox="0 0 512.001 512.001" style="enable-background:new 0 0 512.001 512.001;" xml:space="preserve">
<rect x="232.003" y="352.004" style="fill:#5D5360;" width="48" height="72.001"/>
<path style="fill:#5D5360;" d="M280.003,424.001h-32v-32c0-8.837,7.163-16,16-16h16V424.001z"/>
<path style="fill:#5D5360;" d="M320.003,456.002H192.002c-4.418,0-8-3.582-8-8v-16c0-4.418,3.582-8,8-8h128.001c4.418,0,8,3.582,8,8
	v16C328.003,452.421,324.422,456.002,320.003,456.002z"/>
<path style="fill:#5D5360;" d="M511.56,322.743l-40-240.002c-2.57-15.492-15.844-26.742-31.563-26.742H72.001
	c-15.703,0-28.977,11.242-31.563,26.742l-40,240.002c-1.547,9.297,1.055,18.75,7.148,25.945
	c6.094,7.188,14.992,11.313,24.414,11.313h447.996c9.43,0,18.336-4.125,24.422-11.32
	C510.513,341.486,513.115,332.033,511.56,322.743z"/>
<g>
	<path style="fill:#E4E3E0;" d="M41.224,215.999h81.546c4.684,0,8.366,4.006,7.972,8.674l-3.382,40
		c-0.35,4.142-3.815,7.326-7.972,7.326H34.557c-4.944,0-8.704-4.439-7.891-9.315l6.667-40
		C33.976,218.827,37.314,215.999,41.224,215.999z"/>
	<path style="fill:#E4E3E0;" d="M53.224,143.999h75.634c4.684,0,8.366,4.006,7.972,8.674l-3.382,40
		c-0.35,4.142-3.815,7.326-7.972,7.326H46.557c-4.944,0-8.704-4.439-7.891-9.315l6.667-40
		C45.976,146.827,49.314,143.999,53.224,143.999z"/>
	<path style="fill:#E4E3E0;" d="M465.44,199.999h-78.914c-4.157,0-7.621-3.184-7.972-7.326l-3.381-40
		c-0.395-4.667,3.287-8.674,7.972-8.674h75.629c3.911,0,7.248,2.827,7.891,6.685l6.666,40
		C474.144,195.56,470.384,199.999,465.44,199.999z"/>
	<path style="fill:#E4E3E0;" d="M354.417,199.999h-82.415c-4.418,0-8-3.582-8-8v-40c0-4.418,3.582-8,8-8h79.034
		c4.157,0,7.621,3.184,7.972,7.326l3.381,40C362.784,195.993,359.101,199.999,354.417,199.999z"/>
	<path style="fill:#E4E3E0;" d="M264.003,119.999v-40c0-4.418,3.582-8,8-8h72.948c4.157,0,7.621,3.184,7.972,7.326l3.381,40
		c0.395,4.667-3.287,8.674-7.972,8.674h-76.329C267.585,127.999,264.003,124.418,264.003,119.999z"/>
	<path style="fill:#E4E3E0;" d="M240.002,127.999h-76.33c-4.684,0-8.366-4.006-7.972-8.674l3.382-40
		c0.35-4.142,3.815-7.326,7.972-7.326h72.948c4.418,0,8,3.582,8,8v40C248.002,124.418,244.421,127.999,240.002,127.999z"/>
	<path style="fill:#E4E3E0;" d="M248.002,151.999v40c0,4.418-3.582,8-8,8h-82.418c-4.684,0-8.366-4.007-7.972-8.674l3.382-40
		c0.35-4.142,3.815-7.326,7.972-7.326h79.036C244.421,143.999,248.002,147.581,248.002,151.999z"/>
	<path style="fill:#E4E3E0;" d="M154.878,215.999h85.124c4.418,0,8,3.582,8,8v40c0,4.418-3.582,8-8,8h-88.506
		c-4.684,0-8.366-4.007-7.972-8.674l3.382-40C147.257,219.183,150.721,215.999,154.878,215.999z"/>
	<path style="fill:#E4E3E0;" d="M248.002,296v40c0,4.418-3.582,8-8,8h-94.594c-4.684,0-8.366-4.007-7.972-8.674l3.382-40
		c0.35-4.142,3.815-7.326,7.972-7.326h91.212C244.421,288,248.002,291.582,248.002,296z"/>
	<path style="fill:#E4E3E0;" d="M272.003,288h91.206c4.157,0,7.621,3.184,7.972,7.326l3.381,40c0.395,4.667-3.287,8.674-7.972,8.674
		h-94.587c-4.418,0-8-3.582-8-8v-40C264.003,291.582,267.585,288,272.003,288z"/>
	<path style="fill:#E4E3E0;" d="M264.003,264v-40c0-4.418,3.582-8,8-8h85.12c4.157,0,7.621,3.184,7.972,7.326l3.381,40
		c0.395,4.667-3.287,8.674-7.972,8.674h-88.501C267.585,272,264.003,268.419,264.003,264z"/>
	<path style="fill:#E4E3E0;" d="M389.231,215.999h81.542c3.911,0,7.248,2.827,7.891,6.685l6.666,40
		c0.813,4.876-2.948,9.315-7.891,9.315h-84.828c-4.157,0-7.621-3.184-7.972-7.326l-3.381-40
		C380.865,220.006,384.547,215.999,389.231,215.999z"/>
	<path style="fill:#E4E3E0;" d="M454.664,78.683l6.667,40c0.813,4.876-2.948,9.315-7.891,9.315h-73
		c-4.157,0-7.621-3.184-7.972-7.326l-3.381-40c-0.395-4.667,3.287-8.674,7.972-8.674h69.715
		C450.684,71.998,454.021,74.826,454.664,78.683z"/>
	<path style="fill:#E4E3E0;" d="M57.334,78.683c0.643-3.858,3.98-6.685,7.891-6.685h69.722c4.684,0,8.366,4.006,7.972,8.674
		l-3.382,40c-0.35,4.142-3.815,7.326-7.972,7.326H58.558c-4.944,0-8.704-4.439-7.891-9.315L57.334,78.683z"/>
	<path style="fill:#E4E3E0;" d="M19.797,338.345c-3.047-3.602-4.352-8.328-3.578-12.977l5.114-30.682
		c0.643-3.858,3.98-6.685,7.891-6.685h87.458c4.684,0,8.366,4.007,7.972,8.674l-3.382,40c-0.35,4.142-3.815,7.326-7.972,7.326H32
		C27.29,344.001,22.844,341.939,19.797,338.345z"/>
	<path style="fill:#E4E3E0;" d="M492.209,338.337c-3.047,3.602-7.492,5.664-12.211,5.664h-81.3c-4.157,0-7.621-3.184-7.972-7.326
		l-3.381-40c-0.395-4.667,3.287-8.674,7.972-8.674h87.456c3.911,0,7.248,2.827,7.891,6.685l5.115,30.69
		C496.552,330.017,495.255,334.744,492.209,338.337z"/>
</g>
<path style="fill:#5D5360;" d="M224.002,448.002v-16c0-4.418,3.582-8,8-8h-40c-4.418,0-8,3.582-8,8v16c0,4.418,3.582,8,8,8h40
	C227.584,456.002,224.002,452.42,224.002,448.002z"/>
<g>
</g>
<g>
</g>
<g>
</g>
<g>
</g>
<g>
</g>
<g>
</g>
<g>
</g>
<g>
</g>
<g>
</g>
<g>
</g>
<g>
</g>
<g>
</g>
<g>
</g>
<g>
</g>
<g>
</g>
</svg>
