<svg height="480pt" viewBox="0 0 480 480" width="480pt" xmlns="http://www.w3.org/2000/svg"><path d="m240 400c-92.640625 0-168-75.359375-168-168 0-44.246094 17.054688-86.007812 48.023438-117.601562l11.425781 11.203124c-28.015625 28.574219-43.449219 66.367188-43.449219 106.398438 0 83.816406 68.183594 152 152 152s152-68.183594 152-152-68.183594-152-152-152v-16c92.640625 0 168 75.359375 168 168s-75.359375 168-168 168zm0 0" fill="#70b48f"/><path d="m240 448h-80c-17.671875 0-32 14.328125-32 32h112" fill="#656665"/><path d="m240 480h112c0-17.671875-14.328125-32-32-32h-80" fill="#575c61"/><path d="m240 288h-16v128c-17.671875 0-32 14.328125-32 32h48" fill="#999"/><path d="m240 448h48c0-17.671875-14.328125-32-32-32v-128h-16" fill="#656665"/><path d="m295.121094 249.855469c19.117187 7.601562 41.519531 19.328125 64.367187 34.265625 55.480469 36.246094 92.625 77.621094 82.960938 92.421875-9.664063 14.792969-62.480469-2.589844-117.960938-38.839844-24.105469-15.742187-44.746093-32.457031-59.59375-47.542969" fill="#eebc5a"/><path d="m328 265.414062c-11.59375-6.230468-22.710938-11.511718-32.878906-15.550781l-30.226563 40.296875c14.847657 15.078125 35.488281 31.792969 59.59375 47.542969 1.175781.769531 2.335938 1.480469 3.511719 2.226563zm0 0" fill="#999"/><path d="m184.878906 249.855469c-19.117187 7.601562-41.519531 19.328125-64.367187 34.257812-55.480469 36.246094-92.625 77.621094-82.960938 92.421875 9.664063 14.792969 62.480469-2.589844 117.960938-38.839844 24.097656-15.742187 44.734375-32.457031 59.585937-47.535156" fill="#eebc5a"/><path d="m155.511719 337.695312c24.097656-15.742187 44.734375-32.457031 59.585937-47.535156l-30.21875-40.304687c-10.160156 4.039062-21.285156 9.320312-32.878906 15.550781v74.515625c1.167969-.746094 2.335938-1.457031 3.511719-2.226563zm0 0" fill="#999"/><path d="m272 120c0-66.273438-14.328125-120-32-120s-32 53.726562-32 120 14.328125 120 32 120 32-53.726562 32-120zm0 0" fill="#eebc5a"/><path d="m240 240c17.671875 0 32-53.726562 32-120l-62.855469 31.425781c3.6875 51.007813 16.085938 88.574219 30.855469 88.574219zm0 0" fill="#999"/><path d="m296 240c0 30.929688-25.070312 56-56 56s-56-25.070312-56-56 25.070312-56 56-56 56 25.070312 56 56zm0 0" fill="#bc8f6f"/><path d="m264 240c0 13.253906-10.746094 24-24 24s-24-10.746094-24-24 10.746094-24 24-24 24 10.746094 24 24zm0 0" fill="#5789d6"/><path d="m248 240c0-12.441406-7.164062-22.527344-16-22.527344s-16 10.085938-16 22.527344 7.164062 22.527344 16 22.527344 16-10.085938 16-22.527344zm0 0" fill="#699ce6"/><path d="m64 80c0 18.710938-16.054688 33.671875-35.144531 31.847656-16.640625-1.582031-28.855469-16.511718-28.855469-33.222656v-1.410156c0-8.695313 2.023438-17.261719 5.910156-25.039063l26.089844-52.175781 26.089844 52.175781c3.886718 7.777344 5.910156 16.351563 5.910156 25.039063zm0 0" fill="#85b6cf"/><path d="m480 80c0 18.710938-16.054688 33.671875-35.144531 31.847656-16.640625-1.582031-28.855469-16.511718-28.855469-33.222656v-1.410156c0-8.695313 2.023438-17.261719 5.910156-25.039063l26.089844-52.175781 26.089844 52.175781c3.886718 7.777344 5.910156 16.351563 5.910156 25.039063zm0 0" fill="#85b6cf"/><path d="m24 16-18.089844 36.175781c-3.886718 7.777344-5.910156 16.351563-5.910156 25.039063v1.410156c0 14.976562 9.847656 28.429688 23.855469 32.230469 13.839843-3.527344 24.144531-15.910157 24.144531-30.855469v-2.785156c0-8.695313-2.023438-17.269532-5.910156-25.039063zm0 0" fill="#94cce7"/><path d="m440 16-18.089844 36.175781c-3.886718 7.777344-5.910156 16.351563-5.910156 25.039063v1.410156c0 14.976562 9.847656 28.429688 23.855469 32.230469 13.839843-3.527344 24.144531-15.910157 24.144531-30.855469v-2.785156c0-8.695313-2.023438-17.269532-5.910156-25.039063zm0 0" fill="#94cce7"/><path d="m136 168h-16v-40h-40v-16h48c4.414062 0 8 3.585938 8 8zm0 0" fill="#599072"/></svg>