<?xml version="1.0" encoding="iso-8859-1"?>
<!-- Generator: Adobe Illustrator 16.0.0, SVG Export Plug-In . SVG Version: 6.00 Build 0)  -->
<!DOCTYPE svg PUBLIC "-//W3C//DTD SVG 1.1//EN" "http://www.w3.org/Graphics/SVG/1.1/DTD/svg11.dtd">
<svg xmlns="http://www.w3.org/2000/svg" xmlns:xlink="http://www.w3.org/1999/xlink" version="1.1" id="Capa_1" x="0px" y="0px" width="512px" height="512px" viewBox="0 0 792 792" style="enable-background:new 0 0 792 792;" xml:space="preserve">
<g>
	<path d="M674.465,134.395c-5.833-6.552-15.428-9.6-30.176-9.6c-8.353,0-17.01,0.999-23.329,1.724   c-2.276,0.264-4.29,0.497-5.918,0.634c-75.869,6.532-149.097,30.561-219.915,53.799l-18.633,6.101   c-3.54,1.151-6.045,4.169-6.73,7.775c-1.506-0.411-3.048-0.715-4.6-0.954c0.847-3.565-0.198-7.333-2.942-9.839l-18.632-17   c-30.003-27.401-61.025-55.73-92.489-82.65c-25.682-21.975-47.261-39.294-67.948-54.519c-0.532-0.391-1.491-1.162-2.784-2.191   C162.294,13.308,143.733,0,130.375,0c-7.684,0-13.673,4.24-16.006,11.335c-5.33,16.173,9.905,36.702,19.987,50.289   c1.354,1.821,2.551,3.434,3.479,4.762c43.706,62.552,101.273,114.058,156.942,163.87l14.266,12.78   c1.902,1.704,4.326,2.597,6.776,2.597c1.121,0,2.236-0.244,3.322-0.624c0.396,1.501,0.887,2.977,1.456,4.433   c-3.52,1.04-6.273,3.834-7.07,7.47l-5.31,24.15c-8.773,39.832-17.846,81.017-25.458,121.878   c-6.167,33.102-10.361,60.452-13.201,86.053c-0.071,0.629-0.249,1.766-0.477,3.286c-5.198,34.299-4.321,51.78,3.043,60.341   c3.124,3.632,7.435,5.635,12.136,5.635c1.182,0,2.389-0.127,3.611-0.38c14.601-3.038,24.206-21.412,30.885-36.353l-14.793,252.52   c-0.274,4.671,1.405,9.296,4.605,12.688c3.16,3.348,7.612,5.27,12.222,5.27h76.219c4.641,0,9.114-1.942,12.278-5.325   c3.19-3.413,4.838-8.049,4.534-12.638l-25.281-431.463c-0.299-5.051-4.271-9.113-9.316-9.514c-0.208-0.015-0.411,0.01-0.619,0.005   c2.967-13.622,5.812-27.214,8.642-40.719l3.966-18.871c0.771-3.656-0.598-7.349-3.403-9.742c0.542-0.538,1.11-1.05,1.623-1.618   c0.537-0.594,1.009-1.223,1.506-1.841c1.902,1.8,4.372,2.825,6.938,2.825c1.024,0,2.06-0.157,3.068-0.477l22.244-7.049   c39.324-12.445,79.992-25.312,119.637-39.324c30.667-10.812,57.211-21.143,81.179-31.595c0.599-0.264,1.729-0.705,3.246-1.298   c34.02-13.384,48.331-23.035,51.039-34.446C679.521,143.69,678.162,138.528,674.465,134.395z M372.883,219.048   c4.138,3.748,6.578,8.87,6.862,14.429c0.284,5.553-1.623,10.888-5.376,15.037c-3.94,4.377-9.58,6.887-15.468,6.887   c-5.178,0-10.153-1.917-14.002-5.396c-8.53-7.729-9.2-20.94-1.476-29.476c3.94-4.376,9.58-6.882,15.468-6.882   C364.069,213.642,369.034,215.559,372.883,219.048z M309.018,215.782l-0.715-0.639c-54.808-49.042-111.481-99.751-153.839-160.376   c-1.024-1.46-2.333-3.23-3.819-5.234c-10.057-13.551-15.737-23.101-16.954-28.507c4.727,1.689,14.474,6.958,34.04,22.527   c1.598,1.273,2.794,2.216,3.423,2.678c20.246,14.9,41.455,31.92,66.751,53.57c31.22,26.702,62.121,54.924,92.002,82.214   l5.254,4.793c-5.913,2.937-11.264,6.973-15.772,11.979C314.83,203.813,311.34,209.574,309.018,215.782z M302.795,507.383   c-6.709,15.498-12.146,25.189-16.208,28.933c-0.877-4.812-1.263-15.879,2.546-40.993c0.284-1.866,0.492-3.256,0.583-4.062   c2.784-25.125,6.912-52.009,12.988-84.608c7.552-40.531,16.589-81.554,25.327-121.224l1.425-6.481   c11.091,7.349,24.987,10.29,38.168,8.104l-0.238,1.136c-15.073,71.934-30.652,146.317-61.954,213.246   C304.677,503.057,303.789,505.09,302.795,507.383z M393.357,771.714h-68.942l15.727-268.424   c13.378-30.576,23.699-62.02,32.077-92.321L393.357,771.714z M619.819,164.469c-1.871,0.735-3.261,1.288-3.966,1.597   c-23.476,10.245-49.574,20.393-79.785,31.048c-39.329,13.906-79.835,26.722-119.002,39.116l-4.95,1.567   c0.852-13.292-3.342-26.549-12.065-37.108l1.396-0.457c69.723-22.877,141.813-46.531,215.335-52.86   c1.79-0.157,4.002-0.411,6.502-0.695c6.156-0.71,13.819-1.592,21.006-1.592c6.03,0,9.728,0.639,11.948,1.308   C652.394,149.574,642.955,155.365,619.819,164.469z" fill="#5D5360" stroke="#5D5360"/>
</g>
<g>
</g>
<g>
</g>
<g>
</g>
<g>
</g>
<g>
</g>
<g>
</g>
<g>
</g>
<g>
</g>
<g>
</g>
<g>
</g>
<g>
</g>
<g>
</g>
<g>
</g>
<g>
</g>
<g>
</g>
</svg>
